<svg width="26" height="26" viewBox="0 0 26 26" fill="none" xmlns="http://www.w3.org/2000/svg">
<g clip-path="url(#clip0_149_70)">
<mask id="mask0_149_70" style="mask-type:luminance" maskUnits="userSpaceOnUse" x="0" y="0" width="26" height="26">
<path d="M26 0H0V26H26V0Z" fill="white"/>
</mask>
<g mask="url(#mask0_149_70)">
<path d="M2.16667 14.0831V12.9998C2.16667 12.1379 2.50907 11.3112 3.11857 10.7017C3.72807 10.0922 4.55471 9.74983 5.41667 9.74983H11.9167V7.38383C11.2852 7.16058 10.7381 6.74767 10.3502 6.20159C9.96246 5.65552 9.75275 5.00295 9.75 4.33316C9.75 2.745 11.7141 1.02466 12.3164 0.534998L13 -0.020752L13.6836 0.534998C14.2859 1.02466 16.25 2.745 16.25 4.33316C16.2473 5.00295 16.0375 5.65552 15.6498 6.20159C15.2619 6.74767 14.7148 7.16058 14.0833 7.38383V9.74983H20.5833C21.4453 9.74983 22.272 10.0922 22.8814 10.7017C23.4909 11.3112 23.8333 12.1379 23.8333 12.9998V14.0831C23.8333 14.4548 23.0945 15.1665 21.9375 15.1665C20.7577 15.1665 20.0417 14.4147 20.0417 14.0831H17.875C17.875 14.4548 17.1362 15.1665 15.9792 15.1665C14.7994 15.1665 14.0833 14.4147 14.0833 14.0831H11.9167C11.9167 14.4548 11.1778 15.1665 10.0208 15.1665C8.84111 15.1665 8.125 14.4147 8.125 14.0831H5.95833C5.95833 14.4548 5.2195 15.1665 4.0625 15.1665C2.88275 15.1665 2.16667 14.4147 2.16667 14.0831ZM0 23.8331V25.9998H26V23.8331H0ZM23.8333 16.9269C23.2363 17.192 22.5907 17.3303 21.9375 17.3331C20.8466 17.3415 19.7891 16.9569 18.9583 16.2498C18.1227 16.9464 17.07 17.3293 15.9821 17.3322C14.8942 17.3352 13.8394 16.9581 13 16.2661C12.1606 16.9581 11.1058 17.3352 10.0179 17.3322C8.93003 17.3293 7.87733 16.9464 7.04167 16.2498C6.21087 16.9569 5.15341 17.3415 4.0625 17.3331C3.40926 17.3303 2.76371 17.192 2.16667 16.9269V21.6665H23.8333V16.9269Z" fill="black"/>
</g>
</g>
<defs>
<clipPath id="clip0_149_70">
<rect width="26" height="26" fill="white"/>
</clipPath>
</defs>
</svg>
