<svg width="26" height="26" viewBox="0 0 26 26" fill="none" xmlns="http://www.w3.org/2000/svg">
<g clip-path="url(#clip0_149_82)">
<path d="M10.4152 12.5807C11.6118 12.5807 12.5819 11.6107 12.5819 10.414C12.5819 9.21741 11.6118 8.24731 10.4152 8.24731C9.21856 8.24731 8.24854 9.21741 8.24854 10.414C8.24854 11.6107 9.21856 12.5807 10.4152 12.5807Z" fill="#424242"/>
<path d="M21.6667 4.35705C22.8633 4.35705 23.8334 3.38699 23.8334 2.19037C23.8334 0.993741 22.8633 0.0236816 21.6667 0.0236816C20.47 0.0236816 19.5 0.993741 19.5 2.19037C19.5 3.38699 20.47 4.35705 21.6667 4.35705Z" fill="#424242"/>
<path d="M13.0002 19.5241C14.1969 19.5241 15.1669 18.554 15.1669 17.3574C15.1669 16.1607 14.1969 15.1907 13.0002 15.1907C11.8036 15.1907 10.8335 16.1607 10.8335 17.3574C10.8335 18.554 11.8036 19.5241 13.0002 19.5241Z" fill="#424242"/>
<path d="M25.9372 11.7574C25.8638 10.9814 25.2496 10.3667 24.4737 10.2927C19.8308 9.84323 16.1567 6.16825 15.7084 1.52532C15.6346 0.750041 15.0211 0.136094 14.2458 0.06175C13.8353 0.0238164 13.4214 0 13 0C5.82029 0 0 5.82029 0 13C0 20.1797 5.82029 26 13 26C20.1797 26 26 20.1797 26 13C26 12.5797 25.9773 12.1658 25.9372 11.7574ZM13 22.75C7.61518 22.8368 3.17967 18.5419 3.09293 13.157C3.00615 7.77229 7.30108 3.33674 12.6858 3.25C13.7461 8.30455 17.6954 12.2534 22.75 13.313C22.5759 18.573 18.2628 22.7476 13 22.75Z" fill="black"/>
</g>
<defs>
<clipPath id="clip0_149_82">
<rect width="26" height="26" fill="white"/>
</clipPath>
</defs>
</svg>
