<svg width="26" height="26" viewBox="0 0 26 26" fill="none" xmlns="http://www.w3.org/2000/svg">
<g clip-path="url(#clip0_149_99)">
<path fill-rule="evenodd" clip-rule="evenodd" d="M13 0C20.1749 0 26 5.82508 26 13C26 20.1749 20.1749 26 13 26C5.82508 26 0 20.1749 0 13C0 5.82508 5.82508 0 13 0ZM13 2.16667C18.9789 2.16667 23.8333 7.02108 23.8333 13C23.8333 18.9789 18.9789 23.8333 13 23.8333C7.02108 23.8333 2.16667 18.9789 2.16667 13C2.16667 7.02108 7.02108 2.16667 13 2.16667ZM10.3025 22.0675C10.335 22.3589 10.6015 22.5756 10.9037 22.542L13.0563 22.2896C13.3467 22.2538 13.5655 21.9917 13.5308 21.6894C13.494 21.3872 13.2243 21.1792 12.9296 21.2138L10.777 21.4663C10.4845 21.4987 10.2689 21.7663 10.3025 22.0675ZM18.2152 19.8001C18.382 19.8001 18.5467 19.8781 18.6539 20.0265C18.8305 20.2746 18.7666 20.6093 18.5293 20.7816L16.7689 22.0447C16.5208 22.2203 16.1828 22.1596 16.0127 21.9202C15.8383 21.6732 15.8968 21.3352 16.1373 21.164L16.7797 20.7036L17.2543 20.3623L17.8977 19.9008C17.9931 19.8337 18.1025 19.8001 18.2119 19.8001H18.2152ZM8.34489 20.4187C8.54754 20.6299 8.89089 20.6418 9.11085 20.4317L10.6687 18.9247C10.8788 18.72 10.8929 18.3798 10.6817 18.1599C10.4693 17.9422 10.1292 17.94 9.91573 18.1469L8.35789 19.6527C8.14454 19.8564 8.13585 20.1998 8.34489 20.4187ZM13.0379 18.7601C12.9296 19.032 13.0607 19.3494 13.3434 19.4632L15.3584 20.2583C15.6314 20.3645 15.9488 20.2367 16.0604 19.9539C16.1709 19.6701 16.0323 19.3603 15.756 19.2508L13.741 18.4546C13.4669 18.3452 13.1506 18.4795 13.0379 18.7601ZM17.8804 16.25C17.9768 16.25 18.0733 16.2771 18.161 16.3313L18.8327 16.7494L19.3288 17.0571L20.0016 17.4742C20.254 17.6313 20.3353 17.9617 20.1749 18.2206C20.0146 18.4795 19.6798 18.5488 19.4307 18.395L17.5901 17.2521C17.3323 17.0907 17.2586 16.7548 17.4146 16.5067C17.5186 16.3399 17.6963 16.25 17.8772 16.25H17.8804ZM7.58554 17.3257C7.88015 17.3268 8.12285 17.563 8.125 17.8663C8.125 18.1707 7.87911 18.4069 7.58554 18.4091L5.41883 18.4167C5.1155 18.4167 4.875 18.1707 4.875 17.8772C4.87608 17.5749 5.11983 17.3333 5.4145 17.3333L6.20642 17.3312L6.79033 17.329L7.58115 17.3257H7.58554ZM13 8.66669C15.392 8.66669 17.3333 10.608 17.3333 13C17.3333 15.392 15.392 17.3333 13 17.3333C10.608 17.3333 8.66669 15.392 8.66669 13C8.66669 10.608 10.608 8.66669 13 8.66669ZM22.672 14.3011C22.5203 14.0497 22.1877 13.9631 21.9267 14.1202L20.0753 15.2457C19.8261 15.3985 19.7362 15.7278 19.8943 15.9889C20.0536 16.2489 20.3851 16.3247 20.6386 16.1709L22.49 15.0453C22.7424 14.8937 22.8269 14.56 22.672 14.3011ZM7.81189 13.104C7.57573 12.9296 7.23558 12.9783 7.05575 13.2232L5.77958 14.9749C5.6095 15.2122 5.65283 15.5513 5.89875 15.7311C6.14575 15.9087 6.48158 15.8524 6.656 15.6119L7.93215 13.8602C8.10658 13.6229 8.05569 13.2827 7.81189 13.104ZM13 10.8333C14.196 10.8333 15.1667 11.804 15.1667 13C15.1667 14.196 14.196 15.1667 13 15.1667C11.804 15.1667 10.8333 14.196 10.8333 13C10.8333 11.804 11.804 10.8333 13 10.8333ZM20.93 13.559C21.1673 13.3867 21.2247 13.0477 21.0459 12.8017L19.7643 11.0543C19.5899 10.8193 19.2541 10.7586 19.0082 10.9384C18.7633 11.1193 18.7157 11.4563 18.8912 11.6957L20.1727 13.4431C20.3461 13.6814 20.6852 13.7367 20.93 13.559ZM3.52517 10.4997C3.2695 10.6427 3.172 10.972 3.31933 11.2385L4.381 13.1267C4.52617 13.3813 4.85225 13.4821 5.11767 13.3326C5.38308 13.1831 5.47083 12.8537 5.32567 12.5948L4.26292 10.7066C4.11992 10.4487 3.7895 10.3534 3.52517 10.4997ZM5.84458 7.59527C5.5575 7.65485 5.36575 7.94085 5.42858 8.23873L5.8825 10.3577C5.94533 10.6437 6.227 10.8366 6.52492 10.7727C6.82283 10.7077 7.00375 10.4195 6.942 10.1292L6.48808 8.01127C6.42742 7.722 6.14033 7.53354 5.84458 7.59527ZM22.3665 10.1974C22.4748 9.92442 22.3427 9.607 22.0599 9.49542L20.0427 8.70354C19.7697 8.59731 19.4534 8.72627 19.3418 9.009C19.2313 9.29285 19.3711 9.60373 19.6473 9.71211L21.6645 10.504C21.9386 10.6123 22.2549 10.478 22.3665 10.1974ZM20.176 6.50758C20.0222 6.25733 19.6885 6.17392 19.4296 6.33317L17.589 7.47611C17.3409 7.63211 17.2543 7.96142 17.4146 8.22142C17.576 8.47927 17.9086 8.55289 18.161 8.39585L20.0016 7.25292C20.2529 7.09908 20.3342 6.76542 20.176 6.50758ZM9.98511 7.92785C10.1573 7.69169 10.1075 7.3515 9.86158 7.17275L8.10442 5.90417C7.86611 5.73517 7.52811 5.78067 7.34933 6.02767C7.17167 6.27467 7.23017 6.6105 7.47173 6.78383L9.22889 8.05131C9.46727 8.22469 9.80631 8.17269 9.98511 7.92785ZM15.1667 7.04167C15.1688 6.74808 14.9294 6.50108 14.625 6.5L12.4583 6.49783C12.1647 6.5 11.9177 6.734 11.9167 7.0395C11.9177 7.34392 12.1615 7.58115 12.4583 7.58115L14.625 7.58331C14.9197 7.58442 15.1645 7.34392 15.1667 7.04167ZM17.7645 5.52283C17.8717 5.24983 17.7385 4.9335 17.4557 4.82192L15.4364 4.03542C15.1623 3.93142 14.8471 4.06033 14.7355 4.34417C14.6261 4.628 14.7669 4.93783 15.0443 5.04617L17.0636 5.83158C17.3377 5.93992 17.6529 5.8045 17.7645 5.52283ZM12.8213 3.75267C12.7173 3.4775 12.4063 3.33233 12.1214 3.44067L10.0977 4.21417C9.82473 4.32033 9.67742 4.628 9.78573 4.91292C9.89515 5.19675 10.2083 5.33217 10.4856 5.226L12.5093 4.45142C12.7844 4.34742 12.9274 4.03542 12.8213 3.75267Z" fill="black"/>
</g>
<defs>
<clipPath id="clip0_149_99">
<rect width="26" height="26" fill="white"/>
</clipPath>
</defs>
</svg>
